<svg id="Layer_1" enable-background="new 0 0 510 510" height="512" viewBox="0 0 510 510" width="512" xmlns="http://www.w3.org/2000/svg"><g id="XMLID_3979_"><path id="XMLID_4073_" d="m30 180c-10.492 0-19.508 0-30 0v150l15 15 15-15 11-75z" fill="#5a5a5a"/><path id="XMLID_4052_" d="m0 330v150h30l11-75-11-75c-10.492 0-19.508 0-30 0z" fill="#444"/><path id="XMLID_4054_" d="m510 292.5c0-2.524-.251-5.032-.752-7.5-11.689-9.545-25.053-20.455-36.743-30 .231-.049 14.614.914 26.512-10.983 6.786-6.787 10.983-16.162 10.983-26.517 0-20.71-16.789-37.5-37.5-37.5-4.865 0-167.635 0-172.5 0 0-10.506 0-75.959 0-86.5 0-35.068-28.429-63.5-63.5-63.5-4.021 0-7.479 0-11.5 0-12.363 86.542-11.325 99.488-24.951 119.928-6.099 9.146-43.955 65.93-50.049 75.072l-16 52.5 16 52.5 161.252 15 161.253-15c.231-.049 14.614.914 26.512-10.983 6.786-6.787 10.983-16.162 10.983-26.517z" fill="#fcc"/><path id="XMLID_4016_" d="m150 435c12.708 5.446 92.208 39.518 105 45h217.5c10.355 0 19.73-4.197 26.517-10.983 11.238-11.238 10.47-24.099 10.983-26.517 0-2.524-.251-5.032-.752-7.5-11.689-9.545-25.053-20.455-36.743-30 .231-.049 14.614.914 26.512-10.983 6.786-6.787 10.983-16.162 10.983-26.517 0-2.524-.251-5.032-.752-7.5-11.689-9.545-25.053-20.455-36.743-30-17.87 0-304.566 0-322.505 0l-16 52.5z" fill="#ffb3b3"/><path id="XMLID_3980_" d="m30 180v150l52.5 15 67.5-15c0-16.07 0-131.894 0-150-14.518 0-105.386 0-120 0z" fill="#2ee66b"/><path id="XMLID_4043_" d="m416.252 255h-56.252v30h149.248c-1.751-8.627-6.463-16.178-13.029-21.547-16.789-13.726-32.373-6.4-79.967-8.453z" fill="#ffb3b3"/><path id="XMLID_4040_" d="m360 360h149.248c-1.751-8.627-6.463-16.178-13.029-21.547-16.789-13.727-32.373-6.4-79.967-8.453h-56.252v15z" fill="#f99"/><path id="XMLID_4022_" d="m360 435h149.248c-1.751-8.627-6.463-16.178-13.029-21.547-13.785-11.27-14.52-8.453-136.219-8.453z" fill="#f99"/><path id="XMLID_3991_" d="m30 330v150h120c0-18.105 0-133.914 0-150-26.413 0-98.436 0-120 0z" fill="#24b383"/><path id="XMLID_4017_" d="m105 435h-30s0-19.508 0-30h30z" fill="#dbf0f9"/></g></svg>