<svg id="Layer_1" enable-background="new 0 0 512 512" height="512" viewBox="0 0 512 512" width="512" xmlns="http://www.w3.org/2000/svg"><g><g id="XMLID_53_"><g><g id="XMLID_1350_"><g id="XMLID_1351_"><g id="XMLID_1352_"><g id="XMLID_1368_"><g id="XMLID_1369_"><g id="XMLID_1370_"><g id="XMLID_1371_"><g id="XMLID_1372_"><g id="XMLID_1373_"><g id="XMLID_1374_"><g id="XMLID_1408_"><g id="XMLID_1409_"><g id="XMLID_1410_"><g id="XMLID_1411_"><circle cx="256" cy="256" fill="#fedd55" r="256"/></g></g></g></g></g></g></g></g></g></g></g></g></g></g></g></g><path d="m512 256c0-28.549-4.678-56.004-13.302-81.647l-80.334-80.334-324.728 324.727 79.776 79.634c25.912 8.826 53.69 13.62 82.588 13.62 141.385 0 256-114.615 256-256z" fill="#fcc63d"/><g><circle cx="319.667" cy="192.716" fill="#5eefee" r="104.011"/><path d="m393.216 266.259c-40.623 40.623-106.483 40.623-147.099.007l147.099-147.099c40.616 40.616 40.616 106.476 0 147.092z" fill="#54c9fc"/><path d="m154.025 260.375h72v123.963h-72z" fill="#ff807d" transform="matrix(.707 .707 -.707 .707 283.598 -39.952)"/><path d="m140.768 317.085h123.97v36h-123.97z" fill="#fc3e53" transform="matrix(.707 -.707 .707 .707 -177.556 241.513)"/><g><path d="m220.97 291.413c-54.422-54.422-54.422-142.973 0-197.394 54.422-54.422 142.973-54.422 197.395 0s54.422 142.973 0 197.395c-54.423 54.421-142.974 54.421-197.395-.001zm162.039-162.039c-34.927-34.927-91.757-34.927-126.684 0s-34.927 91.756 0 126.684 91.757 34.927 126.684 0c34.926-34.927 34.927-91.757 0-126.684z" fill="#776d6b"/></g><g><path d="m418.361 94.022-35.355 35.355c34.924 34.924 34.931 91.754.007 126.678-34.931 34.931-91.761 34.924-126.685 0l-35.355 35.355c8.796 8.796 18.491 16.172 28.786 22.125 53.372 30.872 122.98 23.504 168.61-22.125 54.418-54.418 54.411-142.969-.008-197.388z" fill="#57555c"/></g><path d="m93.636 418.746c-14.059-14.059-14.059-36.853 0-50.912l29.699-29.699 50.912 50.912-29.699 29.698c-14.059 14.06-36.853 14.06-50.912.001z" fill="#776d6b"/><path d="m174.246 389.048-29.698 29.698c-14.057 14.057-36.854 14.057-50.912 0l55.154-55.154z" fill="#57555c"/></g></g></svg>