<?xml version="1.0"?>
<svg xmlns="http://www.w3.org/2000/svg" id="Outline" viewBox="0 0 512 512" width="512" height="512"><path d="M36.169,415.023C39.836,417.023,126.983,464,216,464a332.012,332.012,0,0,0,66.576-7.032l23.2,23.2a8,8,0,0,0,11.315,0l15.57-15.571q1.662.731,3.341,1.391V488a8,8,0,0,0,8,8h48a8,8,0,0,0,8-8V465.987q1.68-.66,3.341-1.391l15.57,15.571a8,8,0,0,0,11.315,0l33.941-33.942a8,8,0,0,0,0-11.314l-15.57-15.57q.731-1.661,1.39-3.341H472a8,8,0,0,0,8-8V360a8,8,0,0,0-8-8H449.986q-.658-1.68-1.39-3.341l15.57-15.57a8,8,0,0,0,0-11.314l-33.941-33.942a8,8,0,0,0-11.315,0L403.341,303.4q-1.662-.731-3.341-1.391V280a8,8,0,0,0-8-8H361.5c-25.407-37.911-61.172-63.734-101.992-74.438a96,96,0,1,0-86.978.017c-33.16,8.7-63.155,27.408-87.009,54.772C51.007,291.941,32,347.218,32,408A8,8,0,0,0,36.169,415.023ZM352,307.668V288h32v19.668a8,8,0,0,0,5.6,7.632,71.781,71.781,0,0,1,11.68,4.86,8,8,0,0,0,9.362-1.433L424.568,304.8,447.2,327.432l-13.923,13.922a8,8,0,0,0-1.433,9.362A71.682,71.682,0,0,1,436.7,362.4a8,8,0,0,0,7.633,5.6H464v32H444.332a8,8,0,0,0-7.633,5.6,71.682,71.682,0,0,1-4.859,11.681,8,8,0,0,0,1.433,9.362L447.2,440.568,424.568,463.2l-13.922-13.923a8,8,0,0,0-9.362-1.433,71.781,71.781,0,0,1-11.68,4.86,8,8,0,0,0-5.6,7.632V480H352V460.332a8,8,0,0,0-5.6-7.632,71.781,71.781,0,0,1-11.68-4.86,8,8,0,0,0-9.362,1.433L311.432,463.2,288.8,440.568l13.923-13.922a8,8,0,0,0,1.433-9.362A71.682,71.682,0,0,1,299.3,405.6a8,8,0,0,0-7.633-5.6H272V368h19.668a8,8,0,0,0,7.633-5.6,71.682,71.682,0,0,1,4.859-11.681,8,8,0,0,0-1.433-9.362L288.8,327.432,311.432,304.8l13.922,13.923a8,8,0,0,0,9.362,1.433,71.781,71.781,0,0,1,11.68-4.86A8,8,0,0,0,352,307.668ZM136,112a80,80,0,1,1,80,80A80.091,80.091,0,0,1,136,112ZM97.579,262.865C128.422,227.485,170.478,208,216,208c49.753,0,94.956,23.239,126.038,64.252A8,8,0,0,0,336,280v22.013q-1.68.66-3.341,1.391l-15.57-15.571a8,8,0,0,0-11.315,0l-33.941,33.942a8,8,0,0,0,0,11.314l15.57,15.57q-.731,1.661-1.39,3.341H264a8,8,0,0,0-8,8v48a8,8,0,0,0,8,8h22.014q.658,1.68,1.39,3.341l-15.57,15.57a7.955,7.955,0,0,0-1.925,8.187A310.493,310.493,0,0,1,216,448c-74.188,0-149.593-35.583-167.957-44.844C49.014,348.164,66.517,298.5,97.579,262.865Z"/><path d="M368,416a32,32,0,1,0-32-32A32.036,32.036,0,0,0,368,416Zm0-48a16,16,0,1,1-16,16A16.019,16.019,0,0,1,368,368Z"/></svg>
